<svg width="22" height="22" viewBox="0 0 22 22" fill="none" xmlns="http://www.w3.org/2000/svg">
<rect width="22" height="22" fill="white" fill-opacity="0.01" style="mix-blend-mode:multiply"/>
<path d="M15.4038 7.58615C15.9506 7.58615 16.3939 7.14291 16.3939 6.59615C16.3939 6.04939 15.9506 5.60615 15.4038 5.60615C14.8571 5.60615 14.4138 6.04939 14.4138 6.59615C14.4138 7.14291 14.8571 7.58615 15.4038 7.58615Z" fill="#E5E6E8"/>
<path d="M11 6.76349C10.1621 6.76349 9.34301 7.01195 8.64632 7.47747C7.94963 7.94298 7.40662 8.60464 7.08597 9.37876C6.76532 10.1529 6.68142 11.0047 6.84489 11.8265C7.00836 12.6483 7.41185 13.4032 8.00433 13.9957C8.59682 14.5882 9.35169 14.9916 10.1735 15.1551C10.9953 15.3186 11.8471 15.2347 12.6212 14.914C13.3954 14.5934 14.057 14.0504 14.5225 13.3537C14.988 12.657 15.2365 11.8379 15.2365 11C15.2365 9.87641 14.7902 8.79883 13.9957 8.00433C13.2012 7.20983 12.1236 6.76349 11 6.76349ZM11 13.75C10.4561 13.75 9.92442 13.5887 9.47218 13.2865C9.01995 12.9844 8.66747 12.5549 8.45933 12.0524C8.25119 11.5499 8.19673 10.9969 8.30284 10.4635C8.40895 9.93005 8.67086 9.44005 9.05546 9.05546C9.44005 8.67086 9.93005 8.40895 10.4635 8.30284C10.9969 8.19673 11.5499 8.25119 12.0524 8.45933C12.5549 8.66747 12.9844 9.01995 13.2865 9.47218C13.5887 9.92442 13.75 10.4561 13.75 11C13.75 11.7293 13.4603 12.4288 12.9445 12.9445C12.4288 13.4603 11.7293 13.75 11 13.75Z" fill="#E5E6E8"/>
<path d="M11 4.23651C13.2028 4.23651 13.4638 4.2449 14.3337 4.28464C14.8568 4.29087 15.375 4.38696 15.8656 4.56871C16.2214 4.706 16.5445 4.91623 16.8142 5.18588C17.0838 5.45553 17.2941 5.77864 17.4314 6.13443C17.6131 6.62503 17.7092 7.14323 17.7154 7.66638C17.7551 8.53627 17.7636 8.79725 17.7636 11.0001C17.7636 13.2029 17.7552 13.4639 17.7154 14.3338C17.7092 14.8569 17.6131 15.3751 17.4314 15.8657C17.2941 16.2215 17.0838 16.5446 16.8142 16.8143C16.5445 17.0839 16.2214 17.2941 15.8656 17.4314C15.375 17.6132 14.8568 17.7093 14.3337 17.7155C13.4639 17.7552 13.203 17.7636 11 17.7636C8.79698 17.7636 8.53614 17.7552 7.66631 17.7155C7.14316 17.7093 6.62496 17.6132 6.13436 17.4314C5.77857 17.2941 5.45547 17.0839 5.18581 16.8143C4.91616 16.5446 4.70593 16.2215 4.56864 15.8657C4.38689 15.3751 4.2908 14.8569 4.28457 14.3338C4.2449 13.4639 4.23644 13.2029 4.23644 11.0001C4.23644 8.79725 4.24483 8.53627 4.28457 7.66638C4.2908 7.14323 4.38689 6.62503 4.56864 6.13443C4.70592 5.77863 4.91615 5.45551 5.1858 5.18584C5.45546 4.91618 5.77857 4.70593 6.13436 4.56864C6.62496 4.38689 7.14316 4.2908 7.66631 4.28457C8.53621 4.2449 8.79718 4.23651 11 4.23651ZM11 2.75C8.75944 2.75 8.47846 2.75949 7.59852 2.79964C6.91422 2.81338 6.2372 2.94304 5.59625 3.18313C5.04813 3.39509 4.55034 3.71924 4.13479 4.13479C3.71924 4.55034 3.39509 5.04813 3.18313 5.59625C2.943 6.23731 2.81334 6.91445 2.79964 7.59887C2.75949 8.47846 2.75 8.75944 2.75 11C2.75 13.2406 2.75949 13.5215 2.79964 14.4015C2.81334 15.0859 2.94301 15.763 3.18313 16.4041C3.39509 16.9522 3.71924 17.45 4.13479 17.8656C4.55034 18.2811 5.04813 18.6053 5.59625 18.8172C6.23731 19.0573 6.91445 19.187 7.59887 19.2007C8.47846 19.2405 8.75944 19.25 11 19.25C13.2406 19.25 13.5215 19.2405 14.4015 19.2004C15.0859 19.1867 15.763 19.057 16.4041 18.8169C16.9522 18.6049 17.45 18.2808 17.8656 17.8652C18.2811 17.4497 18.6053 16.9519 18.8172 16.4038C19.0573 15.7627 19.187 15.0855 19.2007 14.4011C19.2405 13.5215 19.25 13.2406 19.25 11C19.25 8.75944 19.2405 8.47846 19.2004 7.59852C19.1866 6.91422 19.057 6.2372 18.8169 5.59625C18.6049 5.04819 18.2807 4.55047 17.8652 4.13498C17.4496 3.71949 16.9518 3.3954 16.4038 3.18347C15.7627 2.94336 15.0855 2.81369 14.4011 2.79998C13.5215 2.75949 13.2406 2.75 11 2.75Z" fill="#E5E6E8"/>
</svg>
